Documentary examining Bokassa's rule in the Central African Republic using the testimony of witnesses and visits to key sites.
 
http://www.imdb.com/title/tt0162941/

General 
Unique ID : 207636242554425957388308773712926355383 (0x9C354924217B185DB860ED901BA42FB7) 
Complete name : D:a BTa pWerner Herzog - 1990 - Echoes From a Somber EmpireEchos.aus.einem.duesteren.Reich.1990.DVDRip.x264.mkv 
Format : Matroska 
Format version : Version 2 
File size : 1.32 GiB 
Duration : 1h 26mn 
Overall bit rate : 2 199 Kbps 
Encoded date : UTC 2013-04-15 02:09:01 
Writing application : mkvmerge v5.8.0 ('No Sleep / Pillow') built on Sep 2 2012 15:37:04 
Writing library : libebml v1.2.3 + libmatroska v1.3.0 

Video 
ID : 1 
Format : AVC 
Format/Info : Advanced Video Codec 
Format profile : High@L3.1 
Format settings, CABAC : Yes 
Format settings, ReFrames : 11 frames 
Codec ID : V_MPEG4/ISO/AVC 
Duration : 1h 26mn 
Bit rate : 1 963 Kbps 
Width : 694 pixels 
Height : 570 pixels 
Display aspect ratio : 1.298 
Original display aspect ratio : 1.299 
Frame rate mode : Constant 
Frame rate : 25.000 fps 
Color space : YUV 
Chroma subsampling : 4:2:0 
Bit depth : 8 bits 
Scan type : Progressive 
Bits/(Pixel*Frame) : 0.198 
Stream size : 1.18 GiB (89%) 
Writing library : x264 core 129 r2245 bc13772 
Encoding settings : cabac=1 / ref=11 / deblock=1:-3:-3 / analyse=0x3:0x133 / me=umh / subme=11 / psy=1 / psy_rd=1.15:0.05 / mixed_ref=1 / me_range=32 / chroma_me=1 / trellis=2 / 8x8dct=1 / cqm=0 / deadzone=21,11 / fast_pskip=0 / chroma_qp_offset=-3 / threads=12 / lookahead_threads=2 / sliced_threads=0 / nr=0 / decimate=1 / interlaced=0 / bluray_compat=0 / constrained_intra=0 / bframes=16 / b_pyramid=2 / b_adapt=2 / b_bias=0 / direct=3 / weightb=1 / open_gop=0 / weightp=2 / keyint=250 / keyint_min=25 / scenecut=40 / intra_refresh=0 / rc_lookahead=60 / rc=crf / mbtree=1 / crf=22.3 / qcomp=0.60 / qpmin=0 / qpmax=69 / qpstep=4 / ip_ratio=1.40 / aq=2:0.85 
Language : English 
Default : Yes 
Forced : No 

Audio 
ID : 2 
Format : AC-3 
Format/Info : Audio Coding 3 
Mode extension : CM (complete main) 
Format settings, Endianness : Big 
Codec ID : A_AC3 
Duration : 1h 26mn 
Bit rate mode : Constant 
Bit rate : 192 Kbps 
Channel(s) : 2 channels 
Channel positions : Front: L R 
Sampling rate : 48.0 KHz 
Bit depth : 16 bits 
Compression mode : Lossy 
Stream size : 118 MiB (9%) 
Default : Yes 
Forced : No 

Text #1 
ID : 3 
Format : VobSub 
Muxing mode : zlib 
Codec ID : S_VOBSUB 
Codec ID/Info : The same subtitle format used on DVDs 
Language : German 
Default : No 
Forced : No 

Text #2 
ID : 4 
Format : VobSub 
Muxing mode : zlib 
Codec ID : S_VOBSUB 
Codec ID/Info : The same subtitle format used on DVDs 
Language : English 
Default : No 
Forced : No 

Text #3 
ID : 5 
Format : VobSub 
Muxing mode : zlib 
Codec ID : S_VOBSUB 
Codec ID/Info : The same subtitle format used on DVDs 
Language : French 
Default : No 
Forced : No 

Text #4 
ID : 6 
Format : VobSub 
Muxing mode : zlib 
Codec ID : S_VOBSUB 
Codec ID/Info : The same subtitle format used on DVDs 
Language : Spanish 
Default : No 
Forced : No 

Text #5 
ID : 7 
Format : VobSub 
Muxing mode : zlib 
Codec ID : S_VOBSUB 
Codec ID/Info : The same subtitle format used on DVDs 
Language : Portuguese 
Default : Yes 
Forced : No 

Text #6 
ID : 8 
Format : VobSub 
Muxing mode : zlib 
Codec ID : S_VOBSUB 
Codec ID/Info : The same subtitle format used on DVDs 
Language : Russian 
Default : No 
Forced : No 

Text #7 
ID : 9 
Format : VobSub 
Muxing mode : zlib 
Codec ID : S_VOBSUB 
Codec ID/Info : The same subtitle format used on DVDs 
Language : Italian 
Default : No 
Forced : No 

Text #8 
ID : 10 
Format : VobSub 
Muxing mode : zlib 
Codec ID : S_VOBSUB 
Codec ID/Info : The same subtitle format used on DVDs 
Language : Turkish 
Default : No 
Forced : No 

Text #9 
ID : 11 
Format : VobSub 
Muxing mode : zlib 
Codec ID : S_VOBSUB 
Codec ID/Info : The same subtitle format used on DVDs 
Language : Arabic 
Default : No 
Forced : No 

Text #10 
ID : 12 
Format : VobSub 
Muxing mode : zlib 
Codec ID : S_VOBSUB 
Codec ID/Info : The same subtitle format used on DVDs 
Language : Chinese 
Default : No 
Forced : No 

Text #11 
ID : 13 
Format : VobSub 
Muxing mode : zlib 
Codec ID : S_VOBSUB 
Codec ID/Info : The same subtitle format used on DVDs 
Language : Chinese 
Default : No 
Forced : No 

My rip;